<?xml version="1.0" encoding="UTF-8"?>
<svg width="28px" height="28px" viewBox="0 0 28 28" version="1.1" xmlns="http://www.w3.org/2000/svg" xmlns:xlink="http://www.w3.org/1999/xlink">
    <!-- Generator: Sketch 52.6 (67491) - http://www.bohemiancoding.com/sketch -->
    <title>calendarIconAdmin</title>
    <desc>Created with Sketch.</desc>
    <defs>
        <path d="M16.6666667,7.5 L16.6666667,5 C16.6666667,4.53976271 16.2935706,4.16666667 15.8333333,4.16666667 L14.1666667,4.16666667 L14.1666667,5 C14.1666667,5.46023729 13.7935706,5.83333333 13.3333333,5.83333333 C12.873096,5.83333333 12.5,5.46023729 12.5,5 L12.5,4.16666667 L7.5,4.16666667 L7.5,5 C7.5,5.46023729 7.12690396,5.83333333 6.66666667,5.83333333 C6.20642938,5.83333333 5.83333333,5.46023729 5.83333333,5 L5.83333333,4.16666667 L4.16666667,4.16666667 C3.70642938,4.16666667 3.33333333,4.53976271 3.33333333,5 L3.33333333,7.5 L16.6666667,7.5 Z M16.6666667,9.16666667 L3.33333333,9.16666667 L3.33333333,16.6666667 C3.33333333,17.126904 3.70642938,17.5 4.16666667,17.5 L15.8333333,17.5 C16.2935706,17.5 16.6666667,17.126904 16.6666667,16.6666667 L16.6666667,9.16666667 Z M7.5,2.5 L12.5,2.5 L12.5,1.66666667 C12.5,1.20642938 12.873096,0.833333333 13.3333333,0.833333333 C13.7935706,0.833333333 14.1666667,1.20642938 14.1666667,1.66666667 L14.1666667,2.5 L15.8333333,2.5 C17.2140452,2.5 18.3333333,3.61928813 18.3333333,5 L18.3333333,16.6666667 C18.3333333,18.0473785 17.2140452,19.1666667 15.8333333,19.1666667 L4.16666667,19.1666667 C2.78595479,19.1666667 1.66666667,18.0473785 1.66666667,16.6666667 L1.66666667,5 C1.66666667,3.61928813 2.78595479,2.5 4.16666667,2.5 L5.83333333,2.5 L5.83333333,1.66666667 C5.83333333,1.20642938 6.20642938,0.833333333 6.66666667,0.833333333 C7.12690396,0.833333333 7.5,1.20642938 7.5,1.66666667 L7.5,2.5 Z" id="path-1"></path>
    </defs>
    <g id="calendarIconAdmin" stroke="none" stroke-width="1" fill="none" fill-rule="evenodd">
        <g id="calendar" transform="translate(4.000000, 4.000000)">
            <mask id="mask-2" fill="white">
                <use xlink:href="#path-1"></use>
            </mask>
            <use id="Combined-Shape" fill="#000000" fill-rule="nonzero" xlink:href="#path-1"></use>
            <g id="COLOR/-black" mask="url(#mask-2)" fill="#2D2F39" fill-rule="evenodd">
                <rect id="Rectangle" x="0" y="0" width="20" height="20"></rect>
            </g>
        </g>
    </g>
</svg>