<?xml version="1.0" encoding="UTF-8"?>
<svg width="28px" height="28px" viewBox="0 0 28 28" version="1.1" xmlns="http://www.w3.org/2000/svg" xmlns:xlink="http://www.w3.org/1999/xlink">
    <!-- Generator: Sketch 52.6 (67491) - http://www.bohemiancoding.com/sketch -->
    <title>campaignIconAdmin</title>
    <desc>Created with Sketch.</desc>
    <defs>
        <path d="M10,19.1666667 C4.93738979,19.1666667 0.833333333,15.0626102 0.833333333,10 C0.833333333,4.93738979 4.93738979,0.833333333 10,0.833333333 C15.0626102,0.833333333 19.1666667,4.93738979 19.1666667,10 C19.1666667,15.0626102 15.0626102,19.1666667 10,19.1666667 Z M10,17.5 C14.1421356,17.5 17.5,14.1421356 17.5,10 C17.5,5.85786438 14.1421356,2.5 10,2.5 C5.85786438,2.5 2.5,5.85786438 2.5,10 C2.5,14.1421356 5.85786438,17.5 10,17.5 Z M10,15.8333333 C6.77833896,15.8333333 4.16666667,13.221661 4.16666667,10 C4.16666667,6.77833896 6.77833896,4.16666667 10,4.16666667 C13.221661,4.16666667 15.8333333,6.77833896 15.8333333,10 C15.8333333,13.221661 13.221661,15.8333333 10,15.8333333 Z M10,14.1666667 C12.3011865,14.1666667 14.1666667,12.3011865 14.1666667,10 C14.1666667,7.69881354 12.3011865,5.83333333 10,5.83333333 C7.69881354,5.83333333 5.83333333,7.69881354 5.83333333,10 C5.83333333,12.3011865 7.69881354,14.1666667 10,14.1666667 Z M10,12.5 C8.61928813,12.5 7.5,11.3807119 7.5,10 C7.5,8.61928813 8.61928813,7.5 10,7.5 C11.3807119,7.5 12.5,8.61928813 12.5,10 C12.5,11.3807119 11.3807119,12.5 10,12.5 Z M10,10.8333333 C10.4602373,10.8333333 10.8333333,10.4602373 10.8333333,10 C10.8333333,9.53976271 10.4602373,9.16666667 10,9.16666667 C9.53976271,9.16666667 9.16666667,9.53976271 9.16666667,10 C9.16666667,10.4602373 9.53976271,10.8333333 10,10.8333333 Z" id="path-1"></path>
    </defs>
    <g id="campaignIconAdmin" stroke="none" stroke-width="1" fill="none" fill-rule="evenodd">
        <g id="target" transform="translate(4.000000, 4.000000)">
            <mask id="mask-2" fill="white">
                <use xlink:href="#path-1"></use>
            </mask>
            <use id="Combined-Shape" fill="#000000" fill-rule="evenodd" xlink:href="#path-1"></use>
            <g id="COLOR/-black" mask="url(#mask-2)" fill="#2D2F39" fill-rule="evenodd">
                <rect id="Rectangle" x="0" y="0" width="20" height="20"></rect>
            </g>
        </g>
    </g>
</svg>