<?xml version="1.0" encoding="UTF-8"?>
<svg width="28px" height="28px" viewBox="0 0 28 28" version="1.1" xmlns="http://www.w3.org/2000/svg" xmlns:xlink="http://www.w3.org/1999/xlink">
    <!-- Generator: Sketch 52.6 (67491) - http://www.bohemiancoding.com/sketch -->
    <title>editorIconAdmin</title>
    <desc>Created with Sketch.</desc>
    <defs>
        <path d="M12.5658343,13.3402805 L7.84517797,13.3402805 L6.1785113,15.0069471 L10.9040986,15.0069471 L12.5658343,13.3402805 Z M14.2255294,11.6756605 L16.2765387,9.61856511 C17.9056814,7.9894211 17.9056814,5.34947319 16.277411,3.72120279 C14.6491406,2.0929324 12.0091927,2.0929324 10.3809223,3.72120279 L5,9.10212511 L5,13.8284358 L12.7440777,6.08435816 C13.0695146,5.75892125 13.5971521,5.75892125 13.922589,6.08435816 C14.2480259,6.40979507 14.2480259,6.93743255 13.922589,7.26286946 L9.51184464,11.6736138 L14.1666667,11.6736138 C14.1864563,11.6736138 14.2060847,11.6743036 14.2255294,11.6756605 Z M4.51184464,16.6736138 L2.25592232,18.9295361 C1.93048541,19.254973 1.40284793,19.254973 1.07741102,18.9295361 C0.751974106,18.6040992 0.751974106,18.0764617 1.07741102,17.7510248 L3.33333333,15.4951025 L3.33333333,8.75694714 C3.33333333,8.5359334 3.4211307,8.32397181 3.57741102,8.16769149 L9.20241102,2.54269149 C11.4815552,0.26354728 15.1767781,0.26354728 17.4559223,2.54269149 C19.7349156,4.82168474 19.7350665,8.51656905 17.4563752,10.7957499 L11.840128,16.4286625 C11.6837773,16.5854772 11.4714416,16.6736138 11.25,16.6736138 L4.51184464,16.6736138 Z" id="path-1"></path>
    </defs>
    <g id="editorIconAdmin" stroke="none" stroke-width="1" fill="none" fill-rule="evenodd">
        <g id="feather" transform="translate(4.000000, 4.000000)">
            <mask id="mask-2" fill="white">
                <use xlink:href="#path-1"></use>
            </mask>
            <use id="Combined-Shape" fill="#000000" fill-rule="nonzero" xlink:href="#path-1"></use>
            <g id="COLOR/-black" mask="url(#mask-2)" fill="#2D2F39" fill-rule="evenodd">
                <rect id="Rectangle" x="0" y="0" width="20" height="20"></rect>
            </g>
        </g>
    </g>
</svg>