<?xml version="1.0" encoding="UTF-8"?>
<svg width="28px" height="28px" viewBox="0 0 28 28" version="1.1" xmlns="http://www.w3.org/2000/svg" xmlns:xlink="http://www.w3.org/1999/xlink">
    <!-- Generator: Sketch 52.6 (67491) - http://www.bohemiancoding.com/sketch -->
    <title>insightsIconAdmin</title>
    <desc>Created with Sketch.</desc>
    <defs>
        <path d="M9.16666667,3.33333333 L9.16666667,16.6666667 L10.8333333,16.6666667 L10.8333333,3.33333333 L9.16666667,3.33333333 Z M8.33333333,1.66666667 L11.6666667,1.66666667 C12.126904,1.66666667 12.5,2.03976271 12.5,2.5 L12.5,17.5 C12.5,17.9602373 12.126904,18.3333333 11.6666667,18.3333333 L8.33333333,18.3333333 C7.87309604,18.3333333 7.5,17.9602373 7.5,17.5 L7.5,2.5 C7.5,2.03976271 7.87309604,1.66666667 8.33333333,1.66666667 Z M15,5.83333333 L18.3333333,5.83333333 C18.7935706,5.83333333 19.1666667,6.20642938 19.1666667,6.66666667 L19.1666667,17.5 C19.1666667,17.9602373 18.7935706,18.3333333 18.3333333,18.3333333 L15,18.3333333 C14.5397627,18.3333333 14.1666667,17.9602373 14.1666667,17.5 L14.1666667,6.66666667 C14.1666667,6.20642938 14.5397627,5.83333333 15,5.83333333 Z M1.66666667,10 L5,10 C5.46023729,10 5.83333333,10.373096 5.83333333,10.8333333 L5.83333333,17.5 C5.83333333,17.9602373 5.46023729,18.3333333 5,18.3333333 L1.66666667,18.3333333 C1.20642938,18.3333333 0.833333333,17.9602373 0.833333333,17.5 L0.833333333,10.8333333 C0.833333333,10.373096 1.20642938,10 1.66666667,10 Z M15.8333333,7.5 L15.8333333,16.6666667 L17.5,16.6666667 L17.5,7.5 L15.8333333,7.5 Z M2.5,16.6666667 L4.16666667,16.6666667 L4.16666667,11.6666667 L2.5,11.6666667 L2.5,16.6666667 Z" id="path-1"></path>
    </defs>
    <g id="insightsIconAdmin" stroke="none" stroke-width="1" fill="none" fill-rule="evenodd">
        <g id="bar-chart-2" transform="translate(4.000000, 4.000000)">
            <mask id="mask-2" fill="white">
                <use xlink:href="#path-1"></use>
            </mask>
            <use id="Combined-Shape" fill="#000000" fill-rule="nonzero" xlink:href="#path-1"></use>
            <g id="COLOR/-black" mask="url(#mask-2)" fill="#2D2F39" fill-rule="evenodd">
                <rect id="Rectangle" x="0" y="0" width="20" height="20"></rect>
            </g>
        </g>
    </g>
</svg>