<?xml version="1.0" encoding="UTF-8"?>
<svg width="60px" height="60px" viewBox="0 0 60 60" version="1.1" xmlns="http://www.w3.org/2000/svg" xmlns:xlink="http://www.w3.org/1999/xlink">
    <!-- Generator: Sketch 52.6 (67491) - http://www.bohemiancoding.com/sketch -->
    <title>linkedin</title>
    <desc>Created with Sketch.</desc>
    <g id="App-flow-2018/2019" stroke="none" stroke-width="1" fill="none" fill-rule="evenodd">
        <g id="linkedin">
            <rect id="Rectangle-Copy-3" fill="#FFFFFF" x="0" y="0" width="60" height="60"></rect>
            <g id="iconfinder_linkedin_square_color_107091" fill="#D6DCDF">
                <path d="M46.837,44.137 L46.837,32.425 C46.837,26.151 43.487,23.231 39.021,23.231 C35.417,23.231 33.802,25.213 32.902,26.604 L32.902,23.71 L26.112,23.71 C26.202,25.627 26.112,44.138 26.112,44.138 L32.902,44.138 L32.902,32.729 C32.902,32.119 32.946,31.509 33.126,31.072 C33.616,29.853 34.733,28.59 36.608,28.59 C39.066,28.59 40.048,30.463 40.048,33.208 L40.048,44.137 L46.837,44.137 Z M18.959,20.922 C21.326,20.922 22.801,19.353 22.801,17.391 C22.757,15.388 21.326,13.863 19.004,13.863 C16.682,13.863 15.163,15.388 15.163,17.391 C15.163,19.353 16.637,20.922 18.916,20.922 L18.959,20.922 Z M22.354,44.137 L22.354,23.71 L15.565,23.71 L15.565,44.137 L22.354,44.137 Z M0,0 L60,0 L60,60 L0,60 L0,0 Z" id="Shape"></path>
            </g>
        </g>
    </g>
</svg>