<?xml version="1.0" encoding="UTF-8"?>
<svg width="267px" height="33px" viewBox="0 0 267 33" version="1.1" xmlns="http://www.w3.org/2000/svg" xmlns:xlink="http://www.w3.org/1999/xlink">
    <!-- Generator: Sketch 52.6 (67491) - http://www.bohemiancoding.com/sketch -->
    <title>160</title>
    <desc>Created with Sketch.</desc>
    <g id="App-flow-2018/2019" stroke="none" stroke-width="1" fill="none" fill-rule="evenodd">
        <g id="iPhone-8-Copy-66" transform="translate(-55.000000, -190.000000)" fill="#2D2F39" fill-rule="nonzero">
            <g id="160" transform="translate(55.000000, 190.000000)">
                <path d="M0,31.6708324 L0,1.32916757 C0,1.08472186 0.082055775,0.878473781 0.246170662,0.710416501 C0.410283881,0.542360929 0.611693662,0.458333998 0.850405013,0.458333998 L11.3685696,0.458333998 C14.1137502,0.458333998 16.4709897,1.45137846 18.4403583,3.43749986 C20.409727,5.42362125 21.3943963,7.80693104 21.3943963,10.587501 C21.3943963,13.4291824 20.4171863,15.8583249 18.4627379,17.875002 C16.5082879,19.8916791 14.1585094,20.8999989 11.4133288,20.8999989 L5.81855912,20.8999989 L5.81855912,31.6708324 C5.81855912,31.9152816 5.73650334,32.1215382 5.57239013,32.2895852 C5.40827524,32.4576493 5.20686546,32.5416728 4.96815411,32.5416728 L0.850405013,32.5416728 C0.611693662,32.5416728 0.410283881,32.4576493 0.246170662,32.2895852 C0.082055775,32.1215382 0,31.9152816 0,31.6708324 Z M5.81855912,15.3083357 L11.0105043,15.3083357 C12.2637389,15.3083357 13.3453842,14.8500068 14.2554704,13.9333354 C15.1655583,13.016664 15.6205947,11.8861197 15.6205947,10.5416683 C15.6205947,9.28888402 15.1730176,8.23472812 14.27785,7.37916814 C13.3826825,6.52360815 12.2935778,6.09583329 11.0105043,6.09583329 L5.81855912,6.09583329 L5.81855912,15.3083357 Z M26.0912884,24.8416706 C24.6888609,22.3361054 23.9876555,19.5708501 23.9876555,16.5458344 C23.9876555,13.5208188 24.6963202,10.7402915 26.113668,8.20416728 C27.5310175,5.66804304 29.4779765,3.66667369 31.9546067,2.19999943 C34.431237,0.733326878 37.1316182,0 40.0558323,0 C42.9800463,0 45.6804276,0.733326878 48.1570578,2.19999943 C50.6336881,3.66667369 52.5881081,5.66804304 54.0203745,8.20416728 C55.4526426,10.7402915 56.1687666,13.5208188 56.1687666,16.5458344 C56.1687666,19.5708501 55.4526426,22.3361054 54.0203745,24.8416706 C52.5881081,27.3472357 50.6336881,29.3333314 48.1570578,30.8000091 C45.6804276,32.2666697 42.9800463,33 40.0558323,33 C37.1316182,33 34.431237,32.2666697 31.9546067,30.8000091 C29.4779765,29.3333314 27.5235565,27.3472357 26.0912884,24.8416706 Z M29.8062163,16.5458344 C29.8062163,19.4180715 30.8132635,21.8854168 32.8273913,23.9479146 C34.8415175,26.0104296 37.2509739,27.0416614 40.0558323,27.0416614 C41.9058452,27.0416614 43.6215572,26.5680573 45.2030199,25.6208319 C46.7844826,24.6736064 48.0376972,23.3979255 48.9627036,21.7937548 C49.8877101,20.1895772 50.3502075,18.4402887 50.3502075,16.5458344 C50.3502075,14.6513802 49.8877101,12.8868146 48.9627036,11.2520848 C48.0376972,9.61735324 46.7844826,8.32639527 45.2030199,7.37916814 C43.6215572,6.43194101 41.9058452,5.95833343 40.0558323,5.95833343 C38.2058193,5.95833343 36.4901074,6.43194101 34.9086447,7.37916814 C33.327182,8.32639527 32.0814267,9.61735324 31.1713389,11.2520848 C30.2612527,12.8868146 29.8062163,14.6513802 29.8062163,16.5458344 Z M60.1495297,29.4250105 C59.9108184,29.1805614 59.7690847,28.9895818 59.7243272,28.8520888 C59.679568,28.7145787 59.7467051,28.4472311 59.9257387,28.0499949 L61.5370319,25.2083357 C61.7160654,24.9027786 61.9696921,24.727093 62.2979202,24.6812449 C62.6261483,24.6354139 62.8797749,24.7041604 63.0588084,24.8875016 L63.2825995,25.0249946 C63.4317941,25.1472277 63.6033649,25.2694437 63.7973188,25.3916768 C63.9912709,25.5138928 64.2299789,25.6666629 64.5134495,25.850004 C64.7969184,26.0333451 65.1027635,26.2013921 65.4309916,26.3541622 C65.7592197,26.5069493 66.1023615,26.6749963 66.4604285,26.8583374 C66.8184955,27.0416785 67.1840168,27.1944486 67.5570025,27.3166646 C67.9299898,27.4388977 68.3178891,27.5381982 68.7207153,27.6145832 C69.1235399,27.6909682 69.4890612,27.7291778 69.8172893,27.7291778 C70.9810072,27.7291778 71.9507578,27.3854282 72.7265697,26.6979118 C73.5023816,26.0104125 73.8902809,25.1777817 73.8902809,24.2000023 C73.8902809,23.0694357 73.4277851,22.0687579 72.5027787,21.1979175 C71.5777722,20.3270805 70.1455258,19.4944497 68.2059961,18.7000011 C67.2809896,18.3333326 66.4455132,17.9437536 65.6995402,17.5312523 C64.9535673,17.1187494 64.200145,16.6145878 63.4392534,16.0187522 C62.6783601,15.4229149 62.0368342,14.7888937 61.5146523,14.116668 C60.9924721,13.4444423 60.5747339,12.6500057 60.2614244,11.7333343 C59.9481166,10.8166629 59.7914644,9.83889541 59.7914644,8.80000114 C59.7914644,7.73055116 59.9928741,6.69931077 60.3956987,5.70625093 C60.7985249,4.71318937 61.387834,3.77361613 62.1636459,2.88750043 C62.9394578,2.00138473 63.9912642,1.29861356 65.3190953,0.779166429 C66.646928,0.259719295 68.1612302,0 69.8620485,0 C70.9362496,0 71.9955137,0.122221146 73.0398759,0.366666857 C74.084238,0.611112567 74.9943125,0.924303079 75.7701244,1.30625036 C76.5459363,1.68819592 77.1650843,2.01666515 77.6275867,2.29166657 C78.0900907,2.566668 78.4854493,2.82638729 78.8136774,3.070833 C79.0523888,3.19305586 79.2015817,3.41458265 79.2612595,3.73541679 C79.3209374,4.05625263 79.2612612,4.33888743 79.0822277,4.58333314 L77.3814177,7.19583386 C77.2023842,7.50139099 76.9636762,7.70763907 76.665287,7.81458492 C76.3668978,7.92152907 76.0834322,7.89861185 75.814882,7.74583329 C73.1890571,6.06527074 71.1152831,5.22499972 69.5934983,5.22499972 C68.3999415,5.22499972 67.4451111,5.56110915 66.7289771,6.23333314 C66.012843,6.90555885 65.654781,7.63888572 65.654781,8.43333428 C65.654781,9.47222855 66.0725209,10.3965248 66.9080106,11.2062504 C67.7435003,12.0159776 69.08623,12.8027757 70.9362429,13.5666686 C71.9507662,13.9944486 72.8384611,14.391666 73.5993527,14.7583346 C74.3602459,15.1250031 75.188263,15.6291647 76.0834306,16.2708347 C76.9785981,16.9125047 77.7096408,17.5694431 78.2765802,18.2416689 C78.8435197,18.9138946 79.3209357,19.7465254 79.7088417,20.7395903 C80.0967476,21.7326468 80.2906964,22.7944326 80.2906964,23.9249991 C80.2906964,26.3694562 79.335866,28.493045 77.4261752,30.2958339 C75.5164844,32.0986227 73.0398925,33 69.9963228,33 C68.6834104,33 67.4376535,32.862507 66.259017,32.5875038 C65.0803789,32.3125007 64.080791,31.9611126 63.2602199,31.5333394 C62.4396505,31.1055492 61.7906636,30.7236241 61.3132409,30.3874959 C60.8358182,30.0513847 60.4479189,29.7305677 60.1495297,29.4250105 Z M89.9557443,31.6708324 L89.9557443,5.95833343 L83.1077483,5.95833343 C82.869037,5.95833343 82.6676272,5.866668 82.5035123,5.68333371 C82.3393991,5.49999943 82.2573433,5.30138985 82.2573433,5.08749986 L82.2573433,1.32916757 C82.2573433,1.08472186 82.3393991,0.878473781 82.5035123,0.710416501 C82.6676272,0.542360929 82.869037,0.458333998 83.1077483,0.458333998 L102.66706,0.458333998 C102.905772,0.458333998 103.107181,0.54999943 103.271295,0.733333713 C103.43541,0.916667996 103.517465,1.11527757 103.517465,1.32916757 L103.517465,5.08749986 C103.517465,5.33194557 103.43541,5.53819365 103.271295,5.70625093 C103.107181,5.8743065 102.905772,5.95833343 102.66706,5.95833343 L95.8190626,5.95833343 L95.8190626,31.6708324 C95.8190626,31.9152816 95.7295475,32.1215382 95.550514,32.2895852 C95.3714805,32.4576493 95.17753,32.5416728 94.9686576,32.5416728 L90.8061493,32.5416728 C90.567438,32.5416728 90.3660282,32.4576493 90.201915,32.2895852 C90.0378001,32.1215382 89.9557443,31.9152816 89.9557443,31.6708324 Z M117.387066,24.8416706 C115.984636,22.3361054 115.283433,19.5708501 115.283433,16.5458344 C115.283433,13.5208188 115.992096,10.7402915 117.409445,8.20416728 C118.826793,5.66804304 120.773754,3.66667369 123.250384,2.19999943 C125.727014,0.733326878 128.427395,0 131.35161,0 C134.275822,0 136.976205,0.733326878 139.452833,2.19999943 C141.929464,3.66667369 143.883884,5.66804304 145.316152,8.20416728 C146.74842,10.7402915 147.464544,13.5208188 147.464544,16.5458344 C147.464544,19.5708501 146.74842,22.3361054 145.316152,24.8416706 C143.883884,27.3472357 141.929464,29.3333314 139.452833,30.8000091 C136.976205,32.2666697 134.275822,33 131.35161,33 C128.427395,33 125.727014,32.2666697 123.250384,30.8000091 C120.773754,29.3333314 118.819334,27.3472357 117.387066,24.8416706 Z M121.101992,16.5458344 C121.101992,19.4180715 122.109041,21.8854168 124.123167,23.9479146 C126.137295,26.0104296 128.546751,27.0416614 131.35161,27.0416614 C133.201621,27.0416614 134.917333,26.5680573 136.498795,25.6208319 C138.080258,24.6736064 139.333474,23.3979255 140.258481,21.7937548 C141.183487,20.1895772 141.645983,18.4402887 141.645983,16.5458344 C141.645983,14.6513802 141.183487,12.8868146 140.258481,11.2520848 C139.333474,9.61735324 138.080258,8.32639527 136.498795,7.37916814 C134.917333,6.43194101 133.201621,5.95833343 131.35161,5.95833343 C129.501597,5.95833343 127.785885,6.43194101 126.204422,7.37916814 C124.622959,8.32639527 123.377202,9.61735324 122.467116,11.2520848 C121.557028,12.8868146 121.101992,14.6513802 121.101992,16.5458344 Z M153.056599,31.6708324 L153.056599,1.32916757 C153.056599,1.08472186 153.138654,0.878473781 153.302769,0.710416501 C153.466882,0.542360929 153.668292,0.458333998 153.907004,0.458333998 L172.123571,0.458333998 C172.362282,0.458333998 172.563692,0.54999943 172.727807,0.733333713 C172.89192,0.916667996 172.973976,1.11527757 172.973976,1.32916757 L172.973976,5.08749986 C172.973976,5.33194557 172.89192,5.53819365 172.727807,5.70625093 C172.563692,5.8743065 172.362282,5.95833343 172.123571,5.95833343 L158.875159,5.95833343 L158.875159,14.575002 L169.930421,14.575002 C170.169133,14.575002 170.370542,14.6666674 170.534657,14.8500017 C170.69877,15.033336 170.780826,15.2319456 170.780826,15.4458356 L170.780826,19.2041679 C170.780826,19.4486136 170.69877,19.6548616 170.534657,19.8229189 C170.370542,19.9909745 170.169133,20.0750014 169.930421,20.0750014 L158.875159,20.0750014 L158.875159,31.6708324 C158.875159,31.9152816 158.793104,32.1215382 158.628989,32.2895852 C158.464875,32.4576493 158.263466,32.5416728 158.024754,32.5416728 L153.907004,32.5416728 C153.668292,32.5416728 153.466882,32.4576493 153.302769,32.2895852 C153.138654,32.1215382 153.056599,31.9152816 153.056599,31.6708324 Z M178.028935,31.6708324 L178.028935,1.32916757 C178.028935,1.08472186 178.110991,0.878473781 178.275104,0.710416501 C178.439219,0.542360929 178.640629,0.458333998 178.87934,0.458333998 L197.095907,0.458333998 C197.334619,0.458333998 197.536028,0.54999943 197.700142,0.733333713 C197.864257,0.916667996 197.946312,1.11527757 197.946312,1.32916757 L197.946312,5.08749986 C197.946312,5.33194557 197.864257,5.53819365 197.700142,5.70625093 C197.536028,5.8743065 197.334619,5.95833343 197.095907,5.95833343 L183.847494,5.95833343 L183.847494,14.575002 L194.902758,14.575002 C195.141469,14.575002 195.342879,14.6666674 195.506992,14.8500017 C195.671107,15.033336 195.753163,15.2319456 195.753163,15.4458356 L195.753163,19.2041679 C195.753163,19.4486136 195.671107,19.6548616 195.506992,19.8229189 C195.342879,19.9909745 195.141469,20.0750014 194.902758,20.0750014 L183.847494,20.0750014 L183.847494,31.6708324 C183.847494,31.9152816 183.765438,32.1215382 183.601323,32.2895852 C183.43721,32.4576493 183.2358,32.5416728 182.997089,32.5416728 L178.87934,32.5416728 C178.640629,32.5416728 178.439219,32.4576493 178.275104,32.2895852 C178.110991,32.1215382 178.028935,31.9152816 178.028935,31.6708324 Z M203.00127,31.6708324 L203.00127,1.32916757 C203.00127,1.08472186 203.083326,0.878473781 203.24744,0.710416501 C203.411554,0.542360929 203.612963,0.458333998 203.851675,0.458333998 L208.014183,0.458333998 C208.252894,0.458333998 208.454304,0.54999943 208.618417,0.733333713 C208.782532,0.916667996 208.864588,1.11527757 208.864588,1.32916757 L208.864588,31.6708324 C208.864588,31.9152816 208.775073,32.1215382 208.59604,32.2895852 C208.417006,32.4576493 208.223056,32.5416728 208.014183,32.5416728 L203.851675,32.5416728 C203.612963,32.5416728 203.411554,32.4576493 203.24744,32.2895852 C203.083326,32.1215382 203.00127,31.9152816 203.00127,31.6708324 Z M230.614336,0 C232.822416,0 234.784296,0.351384728 236.500033,1.05416614 C238.215771,1.75694756 239.864346,2.82638216 241.445809,4.26250071 C241.624842,4.44583499 241.721817,4.65972157 241.736737,4.90416728 C241.751656,5.14861299 241.6696,5.36249957 241.490566,5.54583386 L238.760319,8.43333428 C238.611125,8.61666857 238.432095,8.708334 238.223222,8.708334 C238.01435,8.708334 237.820399,8.61666857 237.641366,8.43333428 C236.68652,7.5777743 235.612336,6.91319735 234.418779,6.43958464 C233.225223,5.96597022 232.001845,5.72916643 230.748611,5.72916643 C227.943752,5.72916643 225.579053,6.77568382 223.654444,8.86875107 C221.729833,10.9618166 220.767543,13.474986 220.767543,16.4083346 C220.767543,18.3027888 221.2002,20.0597159 222.065529,21.6791773 C222.930857,23.298625 224.131857,24.5895829 225.66856,25.5520854 C227.205265,26.5145878 228.913516,26.9958304 230.793368,26.9958304 C233.24016,26.9958304 235.522803,26.1250071 237.641366,24.3833434 C237.820399,24.2305563 238.01435,24.1618098 238.223222,24.1770868 C238.432095,24.1923638 238.611125,24.2611103 238.760319,24.3833434 L241.535326,27.3166646 C241.714359,27.5000057 241.796415,27.7138837 241.781495,27.9583329 C241.766576,28.202782 241.6696,28.401383 241.490566,28.5541701 C238.506674,31.5180795 234.881302,33 230.614336,33 C227.690122,33 224.982282,32.2666697 222.490731,30.8000091 C219.999182,29.3333314 218.037303,27.3472357 216.605035,24.8416706 C215.172767,22.3361054 214.456644,19.5708501 214.456644,16.5458344 C214.456644,13.5208188 215.172767,10.7402915 216.605035,8.20416728 C218.037303,5.66804304 219.991723,3.66667369 222.468353,2.19999943 C224.944984,0.733326878 227.660283,0 230.614336,0 Z M247.082623,31.6708324 L247.082623,1.32916757 C247.082623,1.08472186 247.164678,0.878473781 247.328793,0.710416501 C247.492907,0.542360929 247.694316,0.458333998 247.933028,0.458333998 L266.149595,0.458333998 C266.388306,0.458333998 266.589716,0.54999943 266.753829,0.733333713 C266.917944,0.916667996 267,1.11527757 267,1.32916757 L267,5.08749986 C267,5.33194557 266.917944,5.53819365 266.753829,5.70625093 C266.589716,5.8743065 266.388306,5.95833343 266.149595,5.95833343 L252.901182,5.95833343 L252.901182,13.4750014 L263.956445,13.4750014 C264.195157,13.4750014 264.396566,13.5666669 264.560681,13.7500011 C264.724795,13.9333354 264.80685,14.131945 264.80685,14.345835 L264.80685,18.1500017 C264.80685,18.3944474 264.724795,18.6006955 264.560681,18.7687511 C264.396566,18.9368083 264.195157,19.0208353 263.956445,19.0208353 L252.901182,19.0208353 L252.901182,27.0416614 L266.149595,27.0416614 C266.388306,27.0416614 266.589716,27.1333405 266.753829,27.3166646 C266.917944,27.5000057 267,27.6986067 267,27.9125019 L267,31.6708324 C267,31.9152816 266.917944,32.1215382 266.753829,32.2895852 C266.589716,32.4576493 266.388306,32.5416728 266.149595,32.5416728 L247.933028,32.5416728 C247.694316,32.5416728 247.492907,32.4576493 247.328793,32.2895852 C247.164678,32.1215382 247.082623,31.9152816 247.082623,31.6708324 Z" id="POST-OFFICE-Copy"></path>
            </g>
        </g>
    </g>
</svg>