<?xml version="1.0" encoding="UTF-8"?>
<svg width="201px" height="25px" viewBox="0 0 201 25" version="1.1" xmlns="http://www.w3.org/2000/svg" xmlns:xlink="http://www.w3.org/1999/xlink">
    <!-- Generator: Sketch 50.2 (55047) - http://www.bohemiancoding.com/sketch -->
    <title>POST OFFICE Copy</title>
    <desc>Created with Sketch.</desc>
    <defs></defs>
    <g id="Overblik" stroke="none" stroke-width="1" fill="none" fill-rule="evenodd">
        <g id="Home-3-Copy-7" transform="translate(-398.000000, -988.000000)" fill="#000000">
            <path d="M398.427904,1011.66695 L398.427904,989.472274 C398.427904,989.293464 398.489369,989.142596 398.612301,989.019664 C398.735233,988.896732 398.886101,988.835267 399.064911,988.835267 L406.943687,988.835267 C409.000002,988.835267 410.765724,989.561672 412.240906,991.014503 C413.716089,992.467334 414.453669,994.210705 414.453669,996.244669 C414.453669,998.323335 413.721676,1000.10023 412.25767,1001.57541 C410.793663,1003.0506 409.033529,1003.78818 406.977214,1003.78818 L402.786376,1003.78818 L402.786376,1011.66695 C402.786376,1011.84576 402.724911,1011.99663 402.601979,1012.11956 C402.479047,1012.2425 402.328178,1012.30396 402.149368,1012.30396 L399.064911,1012.30396 C398.886101,1012.30396 398.735233,1012.2425 398.612301,1012.11956 C398.489369,1011.99663 398.427904,1011.84576 398.427904,1011.66695 Z M402.786376,999.697919 L406.675473,999.697919 C407.614226,999.697919 408.424446,999.362656 409.106159,998.692118 C409.787872,998.021581 410.128724,997.194597 410.128724,996.211142 C410.128724,995.294741 409.79346,994.523634 409.122923,993.897799 C408.452385,993.271965 407.636577,992.959052 406.675473,992.959052 L402.786376,992.959052 L402.786376,999.697919 Z M417.971941,1006.67147 C416.921432,1004.83867 416.396186,1002.81591 416.396186,1000.60314 C416.396186,998.390367 416.92702,996.356434 417.988704,994.50128 C419.050388,992.646127 420.508785,991.182142 422.363939,990.109282 C424.219093,989.036422 426.24185,988.5 428.432273,988.5 C430.622695,988.5 432.645453,989.036422 434.500606,990.109282 C436.35576,991.182142 437.819745,992.646127 438.892605,994.50128 C439.965464,996.356434 440.501886,998.390367 440.501886,1000.60314 C440.501886,1002.81591 439.965464,1004.83867 438.892605,1006.67147 C437.819745,1008.50428 436.35576,1009.95709 434.500606,1011.02995 C432.645453,1012.10281 430.622695,1012.63923 428.432273,1012.63923 C426.24185,1012.63923 424.219093,1012.10281 422.363939,1011.02995 C420.508785,1009.95709 419.044801,1008.50428 417.971941,1006.67147 Z M420.754657,1000.60314 C420.754657,1002.70416 421.509001,1004.50899 423.01771,1006.0177 C424.526419,1007.52641 426.331255,1008.28076 428.432273,1008.28076 C429.81805,1008.28076 431.103228,1007.93432 432.287844,1007.24143 C433.47246,1006.54854 434.411198,1005.61539 435.104087,1004.44195 C435.796976,1003.26851 436.143415,1001.98892 436.143415,1000.60314 C436.143415,999.217363 435.796976,997.926598 435.104087,996.730806 C434.411198,995.535014 433.47246,994.590688 432.287844,993.897799 C431.103228,993.204911 429.81805,992.858472 428.432273,992.858472 C427.046495,992.858472 425.761318,993.204911 424.576702,993.897799 C423.392085,994.590688 422.458935,995.535014 421.777222,996.730806 C421.095509,997.926598 420.754657,999.217363 420.754657,1000.60314 Z M443.483731,1010.02414 C443.304921,1009.84533 443.198754,1009.70564 443.165227,1009.60506 C443.1317,1009.50448 443.18199,1009.30891 443.316098,1009.01834 L444.523059,1006.93969 C444.657166,1006.71618 444.847149,1006.58766 445.093013,1006.55413 C445.338877,1006.5206 445.528859,1006.57089 445.662967,1006.705 L445.8306,1006.80558 C445.942357,1006.89499 446.070874,1006.98439 446.216157,1007.07379 C446.361441,1007.1632 446.540248,1007.27495 446.752585,1007.40906 C446.964922,1007.54317 447.194018,1007.6661 447.439882,1007.77786 C447.685746,1007.88961 447.942781,1008.01254 448.210996,1008.14665 C448.479211,1008.28076 448.75301,1008.39251 449.032401,1008.48192 C449.311791,1008.57132 449.602353,1008.64396 449.904095,1008.69984 C450.205837,1008.75572 450.479636,1008.78366 450.725499,1008.78366 C451.597198,1008.78366 452.323603,1008.53221 452.904735,1008.02931 C453.485868,1007.5264 453.776429,1006.91734 453.776429,1006.2021 C453.776429,1005.3751 453.42999,1004.64311 452.737102,1004.0061 C452.044213,1003.36909 450.971369,1002.76003 449.518538,1002.1789 C448.825649,1001.91068 448.199824,1001.62571 447.641042,1001.32396 C447.082261,1001.02222 446.517901,1000.65343 445.947944,1000.21758 C445.377987,999.781734 444.897442,999.317953 444.506296,998.826225 C444.115149,998.334498 443.802236,997.753374 443.567548,997.082836 C443.33286,996.412299 443.215517,995.69707 443.215517,994.937127 C443.215517,994.154834 443.366386,993.40049 443.668128,992.674075 C443.96987,991.947659 444.4113,991.260369 444.992433,990.612182 C445.573565,989.963996 446.361435,989.449925 447.356065,989.069954 C448.350696,988.689983 449.485005,988.5 450.759026,988.5 C451.563671,988.5 452.357128,988.589404 453.139422,988.768214 C453.921716,988.947024 454.603419,989.17612 455.184551,989.455511 C455.765683,989.734902 456.229465,989.975174 456.575909,990.176335 C456.922354,990.377496 457.218503,990.567479 457.464367,990.746289 C457.643177,990.835694 457.754931,990.997738 457.799634,991.232426 C457.844336,991.467115 457.799635,991.67386 457.665527,991.85267 L456.391512,993.763693 C456.257405,993.987205 456.078598,994.138074 455.855085,994.216303 C455.631573,994.294533 455.419239,994.277769 455.218078,994.166013 C453.251168,992.936694 451.697779,992.322044 450.557866,992.322044 C449.663816,992.322044 448.948587,992.567904 448.412157,993.059632 C447.875727,993.551359 447.607516,994.087781 447.607516,994.668914 C447.607516,995.428856 447.920429,996.104971 448.546263,996.697279 C449.172098,997.289587 450.177889,997.865123 451.563667,998.423905 C452.323609,998.736822 452.988549,999.027384 453.558506,999.295599 C454.128463,999.563814 454.7487,999.932604 455.419238,1000.40198 C456.089775,1000.87136 456.637373,1001.3519 457.062046,1001.84363 C457.48672,1002.33536 457.844335,1002.94442 458.134901,1003.67083 C458.425467,1004.39725 458.570748,1005.17394 458.570748,1006.00094 C458.570748,1007.78904 457.855519,1009.34243 456.425039,1010.66115 C454.994559,1011.97988 453.139433,1012.63923 450.859606,1012.63923 C449.876151,1012.63923 448.943001,1012.53865 448.060126,1012.33749 C447.177252,1012.13633 446.428496,1011.87929 445.813837,1011.56637 C445.199178,1011.25346 444.713045,1010.97407 444.355425,1010.72821 C443.997805,1010.48234 443.707244,1010.24766 443.483731,1010.02414 Z M465.810484,1011.66695 L465.810484,992.858472 L460.680899,992.858472 C460.502089,992.858472 460.35122,992.791419 460.228288,992.657311 C460.105356,992.523204 460.043891,992.377923 460.043891,992.221464 L460.043891,989.472274 C460.043891,989.293464 460.105356,989.142596 460.228288,989.019664 C460.35122,988.896732 460.502089,988.835267 460.680899,988.835267 L475.332068,988.835267 C475.510878,988.835267 475.661747,988.90232 475.784679,989.036427 C475.907611,989.170535 475.969076,989.315816 475.969076,989.472274 L475.969076,992.221464 C475.969076,992.400274 475.907611,992.551143 475.784679,992.674075 C475.661747,992.797007 475.510878,992.858472 475.332068,992.858472 L470.202483,992.858472 L470.202483,1011.66695 C470.202483,1011.84576 470.13543,1011.99663 470.001322,1012.11956 C469.867215,1012.2425 469.721934,1012.30396 469.565475,1012.30396 L466.447492,1012.30396 C466.268682,1012.30396 466.117813,1012.2425 465.994881,1012.11956 C465.871949,1011.99663 465.810484,1011.84576 465.810484,1011.66695 Z M486.35829,1006.67147 C485.307782,1004.83867 484.782535,1002.81591 484.782535,1000.60314 C484.782535,998.390367 485.313369,996.356434 486.375054,994.50128 C487.436738,992.646127 488.895135,991.182142 490.750289,990.109282 C492.605442,989.036422 494.6282,988.5 496.818622,988.5 C499.009044,988.5 501.031802,989.036422 502.886956,990.109282 C504.742109,991.182142 506.206094,992.646127 507.278954,994.50128 C508.351814,996.356434 508.888236,998.390367 508.888236,1000.60314 C508.888236,1002.81591 508.351814,1004.83867 507.278954,1006.67147 C506.206094,1008.50428 504.742109,1009.95709 502.886956,1011.02995 C501.031802,1012.10281 499.009044,1012.63923 496.818622,1012.63923 C494.6282,1012.63923 492.605442,1012.10281 490.750289,1011.02995 C488.895135,1009.95709 487.43115,1008.50428 486.35829,1006.67147 Z M489.141007,1000.60314 C489.141007,1002.70416 489.89535,1004.50899 491.404059,1006.0177 C492.912769,1007.52641 494.717605,1008.28076 496.818622,1008.28076 C498.2044,1008.28076 499.489577,1007.93432 500.674193,1007.24143 C501.858809,1006.54854 502.797548,1005.61539 503.490436,1004.44195 C504.183325,1003.26851 504.529764,1001.98892 504.529764,1000.60314 C504.529764,999.217363 504.183325,997.926598 503.490436,996.730806 C502.797548,995.535014 501.858809,994.590688 500.674193,993.897799 C499.489577,993.204911 498.2044,992.858472 496.818622,992.858472 C495.432845,992.858472 494.147667,993.204911 492.963051,993.897799 C491.778435,994.590688 490.845284,995.535014 490.163571,996.730806 C489.481858,997.926598 489.141007,999.217363 489.141007,1000.60314 Z M513.077042,1011.66695 L513.077042,989.472274 C513.077042,989.293464 513.138507,989.142596 513.261439,989.019664 C513.384371,988.896732 513.535239,988.835267 513.714049,988.835267 L527.359418,988.835267 C527.538228,988.835267 527.689097,988.90232 527.812029,989.036427 C527.93496,989.170535 527.996425,989.315816 527.996425,989.472274 L527.996425,992.221464 C527.996425,992.400274 527.93496,992.551143 527.812029,992.674075 C527.689097,992.797007 527.538228,992.858472 527.359418,992.858472 L517.435513,992.858472 L517.435513,999.161492 L525.71661,999.161492 C525.89542,999.161492 526.046288,999.228545 526.16922,999.362652 C526.292152,999.49676 526.353617,999.642041 526.353617,999.798499 L526.353617,1002.54769 C526.353617,1002.7265 526.292152,1002.87737 526.16922,1003.0003 C526.046288,1003.12323 525.89542,1003.1847 525.71661,1003.1847 L517.435513,1003.1847 L517.435513,1011.66695 C517.435513,1011.84576 517.374048,1011.99663 517.251117,1012.11956 C517.128185,1012.2425 516.977316,1012.30396 516.798506,1012.30396 L513.714049,1012.30396 C513.535239,1012.30396 513.384371,1012.2425 513.261439,1012.11956 C513.138507,1011.99663 513.077042,1011.84576 513.077042,1011.66695 Z M531.782911,1011.66695 L531.782911,989.472274 C531.782911,989.293464 531.844376,989.142596 531.967308,989.019664 C532.09024,988.896732 532.241108,988.835267 532.419918,988.835267 L546.065287,988.835267 C546.244097,988.835267 546.394966,988.90232 546.517898,989.036427 C546.64083,989.170535 546.702295,989.315816 546.702295,989.472274 L546.702295,992.221464 C546.702295,992.400274 546.64083,992.551143 546.517898,992.674075 C546.394966,992.797007 546.244097,992.858472 546.065287,992.858472 L536.141383,992.858472 L536.141383,999.161492 L544.422479,999.161492 C544.601289,999.161492 544.752157,999.228545 544.875089,999.362652 C544.998021,999.49676 545.059486,999.642041 545.059486,999.798499 L545.059486,1002.54769 C545.059486,1002.7265 544.998021,1002.87737 544.875089,1003.0003 C544.752157,1003.12323 544.601289,1003.1847 544.422479,1003.1847 L536.141383,1003.1847 L536.141383,1011.66695 C536.141383,1011.84576 536.079918,1011.99663 535.956986,1012.11956 C535.834054,1012.2425 535.683185,1012.30396 535.504375,1012.30396 L532.419918,1012.30396 C532.241108,1012.30396 532.09024,1012.2425 531.967308,1012.11956 C531.844376,1011.99663 531.782911,1011.84576 531.782911,1011.66695 Z M550.48878,1011.66695 L550.48878,989.472274 C550.48878,989.293464 550.550245,989.142596 550.673177,989.019664 C550.796109,988.896732 550.946978,988.835267 551.125788,988.835267 L554.243771,988.835267 C554.422581,988.835267 554.57345,988.90232 554.696382,989.036427 C554.819314,989.170535 554.880779,989.315816 554.880779,989.472274 L554.880779,1011.66695 C554.880779,1011.84576 554.813726,1011.99663 554.679618,1012.11956 C554.545511,1012.2425 554.40023,1012.30396 554.243771,1012.30396 L551.125788,1012.30396 C550.946978,1012.30396 550.796109,1012.2425 550.673177,1012.11956 C550.550245,1011.99663 550.48878,1011.84576 550.48878,1011.66695 Z M571.172725,988.5 C572.826717,988.5 574.29629,988.757035 575.581487,989.271114 C576.866684,989.785193 578.101571,990.567475 579.286188,991.617984 C579.420295,991.752091 579.492936,991.908547 579.504111,992.087357 C579.515287,992.266167 579.453822,992.422624 579.319714,992.556731 L577.274585,994.668914 C577.162829,994.803021 577.028724,994.870074 576.872265,994.870074 C576.715806,994.870074 576.570525,994.803021 576.436418,994.668914 C575.721178,994.043079 574.916545,993.556946 574.022495,993.210502 C573.128445,992.864058 572.212058,992.690838 571.273305,992.690838 C569.172288,992.690838 567.400978,993.456357 565.959322,994.987417 C564.517667,996.518478 563.79685,998.35684 563.79685,1000.50256 C563.79685,1001.88834 564.120938,1003.17352 564.769124,1004.35813 C565.417311,1005.54275 566.316935,1006.48707 567.468024,1007.19114 C568.619113,1007.8952 569.898703,1008.24723 571.306832,1008.24723 C573.139634,1008.24723 574.849479,1007.61023 576.436418,1006.33621 C576.570525,1006.22445 576.715806,1006.17416 576.872265,1006.18534 C577.028724,1006.19651 577.162829,1006.2468 577.274585,1006.33621 L579.353241,1008.48192 C579.487348,1008.61602 579.548814,1008.77248 579.537638,1008.95129 C579.526462,1009.1301 579.453822,1009.27538 579.319714,1009.38714 C577.084589,1011.55521 574.368954,1012.63923 571.172725,1012.63923 C568.982303,1012.63923 566.953957,1012.10281 565.087628,1011.02995 C563.221299,1009.95709 561.751726,1008.50428 560.678866,1006.67147 C559.606007,1004.83867 559.069585,1002.81591 559.069585,1000.60314 C559.069585,998.390367 559.606007,996.356434 560.678866,994.50128 C561.751726,992.646127 563.215711,991.182142 565.070865,990.109282 C566.926018,989.036422 568.959951,988.5 571.172725,988.5 Z M583.50852,1011.66695 L583.50852,989.472274 C583.50852,989.293464 583.569985,989.142596 583.692917,989.019664 C583.815849,988.896732 583.966718,988.835267 584.145528,988.835267 L597.790897,988.835267 C597.969707,988.835267 598.120575,988.90232 598.243507,989.036427 C598.366439,989.170535 598.427904,989.315816 598.427904,989.472274 L598.427904,992.221464 C598.427904,992.400274 598.366439,992.551143 598.243507,992.674075 C598.120575,992.797007 597.969707,992.858472 597.790897,992.858472 L587.866992,992.858472 L587.866992,998.356851 L596.148088,998.356851 C596.326898,998.356851 596.477767,998.423904 596.600699,998.558011 C596.72363,998.692119 596.785095,998.8374 596.785095,998.993859 L596.785095,1001.77658 C596.785095,1001.95539 596.72363,1002.10625 596.600699,1002.22919 C596.477767,1002.35212 596.326898,1002.41358 596.148088,1002.41358 L587.866992,1002.41358 L587.866992,1008.28076 L597.790897,1008.28076 C597.969707,1008.28076 598.120575,1008.34781 598.243507,1008.48192 C598.366439,1008.61602 598.427904,1008.7613 598.427904,1008.91776 L598.427904,1011.66695 C598.427904,1011.84576 598.366439,1011.99663 598.243507,1012.11956 C598.120575,1012.2425 597.969707,1012.30396 597.790897,1012.30396 L584.145528,1012.30396 C583.966718,1012.30396 583.815849,1012.2425 583.692917,1012.11956 C583.569985,1011.99663 583.50852,1011.84576 583.50852,1011.66695 Z" id="POST-OFFICE-Copy"></path>
        </g>
    </g>
</svg>