<?xml version="1.0" encoding="UTF-8"?>
<svg width="28px" height="28px" viewBox="0 0 28 28" version="1.1" xmlns="http://www.w3.org/2000/svg" xmlns:xlink="http://www.w3.org/1999/xlink">
    <!-- Generator: Sketch 52.6 (67491) - http://www.bohemiancoding.com/sketch -->
    <title>templateIconAdmin</title>
    <desc>Created with Sketch.</desc>
    <defs>
        <path d="M7.05401353,3.33333333 L3.33333333,3.33333333 C2.87309604,3.33333333 2.5,3.70642938 2.5,4.16666667 L2.5,15.8333333 C2.5,16.2935706 2.87309604,16.6666667 3.33333333,16.6666667 L16.6666667,16.6666667 C17.126904,16.6666667 17.5,16.2935706 17.5,15.8333333 L17.5,6.66666667 C17.5,6.20642938 17.126904,5.83333333 16.6666667,5.83333333 L9.16666667,5.83333333 C8.88803901,5.83333333 8.62784624,5.69408239 8.47329142,5.46225016 L7.05401353,3.33333333 Z M9.61265313,4.16666667 L16.6666667,4.16666667 C18.0473785,4.16666667 19.1666667,5.28595479 19.1666667,6.66666667 L19.1666667,15.8333333 C19.1666667,17.2140452 18.0473785,18.3333333 16.6666667,18.3333333 L3.33333333,18.3333333 C1.95262146,18.3333333 0.833333333,17.2140452 0.833333333,15.8333333 L0.833333333,4.16666667 C0.833333333,2.78595479 1.95262146,1.66666667 3.33333333,1.66666667 L7.5,1.66666667 C7.77862766,1.66666667 8.03882043,1.80591761 8.19337525,2.03774984 L9.61265313,4.16666667 Z" id="path-1"></path>
    </defs>
    <g id="templateIconAdmin" stroke="none" stroke-width="1" fill="none" fill-rule="evenodd">
        <g id="folder" transform="translate(4.000000, 4.000000)">
            <mask id="mask-2" fill="white">
                <use xlink:href="#path-1"></use>
            </mask>
            <use id="Shape" fill="#000000" fill-rule="nonzero" xlink:href="#path-1"></use>
            <g id="COLOR/-black" mask="url(#mask-2)" fill="#2D2F39" fill-rule="evenodd">
                <rect id="Rectangle" x="0" y="0" width="20" height="20"></rect>
            </g>
        </g>
    </g>
</svg>