<?xml version="1.0" encoding="UTF-8"?>
<svg width="60px" height="60px" viewBox="0 0 60 60" version="1.1" xmlns="http://www.w3.org/2000/svg" xmlns:xlink="http://www.w3.org/1999/xlink">
    <!-- Generator: Sketch 52.6 (67491) - http://www.bohemiancoding.com/sketch -->
    <title>twitter</title>
    <desc>Created with Sketch.</desc>
    <g id="App-flow-2018/2019" stroke="none" stroke-width="1" fill="none" fill-rule="evenodd">
        <g id="twitter">
            <rect id="Rectangle-Copy-4" fill="#FFFFFF" x="0" y="0" width="60" height="60"></rect>
            <g id="iconfinder_twitter_square_107066" fill="#D6DCDF">
                <path d="M34.167,18.283 C31.548,19.236 29.893,21.694 30.081,24.384 L30.144,25.422 L29.096,25.295 C25.283,24.808 21.951,23.156 19.122,20.38 L17.739,19.003 L17.383,20.02 C16.629,22.288 17.111,24.681 18.682,26.291 C19.52,27.181 19.331,27.308 17.886,26.778 C17.383,26.609 16.943,26.482 16.901,26.545 C16.755,26.694 17.257,28.621 17.655,29.384 C18.2,30.444 19.31,31.482 20.526,32.096 L21.553,32.583 L20.338,32.604 C19.165,32.604 19.123,32.625 19.249,33.07 C19.668,34.447 21.323,35.909 23.167,36.545 L24.466,36.989 L23.335,37.667 C21.659,38.642 19.689,39.192 17.719,39.235 C16.775,39.256 16,39.341 16,39.404 C16,39.616 18.557,40.802 20.044,41.268 C24.507,42.645 29.809,42.052 33.79,39.701 C36.619,38.027 39.447,34.701 40.768,31.481 C41.481,29.765 42.193,26.629 42.193,25.126 C42.193,24.151 42.256,24.024 43.429,22.859 C44.121,22.18 44.77,21.44 44.896,21.228 C45.106,20.825 45.084,20.825 44.016,21.184 C42.235,21.821 41.983,21.736 42.864,20.783 C43.513,20.105 44.289,18.876 44.289,18.515 C44.289,18.453 43.975,18.557 43.618,18.748 C43.241,18.96 42.403,19.278 41.774,19.468 L40.643,19.829 L39.616,19.129 C39.05,18.748 38.255,18.324 37.835,18.197 C36.766,17.902 35.131,17.944 34.167,18.283 Z M0,0 L60,0 L60,60 L0,60 L0,0 Z" id="Shape"></path>
            </g>
        </g>
    </g>
</svg>