<?xml version="1.0" encoding="UTF-8"?>
<svg width="160px" height="20px" viewBox="0 0 160 20" version="1.1" xmlns="http://www.w3.org/2000/svg" xmlns:xlink="http://www.w3.org/1999/xlink">
    <!-- Generator: Sketch 50.2 (55047) - http://www.bohemiancoding.com/sketch -->
    <title>POST OFFICE Copy</title>
    <desc>Created with Sketch.</desc>
    <defs></defs>
    <g id="Overblik" stroke="none" stroke-width="1" fill="none" fill-rule="evenodd">
        <g id="Home-3-Copy-7" transform="translate(-415.000000, -988.000000)" fill="#000000">
            <path d="M415,1006.53356 L415,988.77782 C415,988.634772 415.049172,988.514077 415.147518,988.415731 C415.245863,988.317386 415.366558,988.268214 415.509606,988.268214 L421.812626,988.268214 C423.457678,988.268214 424.870256,988.849337 426.050402,990.011602 C427.230548,991.173867 427.820612,992.568564 427.820612,994.195735 C427.820612,995.858668 427.235018,997.280186 426.063813,998.460332 C424.892607,999.640478 423.4845,1000.23054 421.839448,1000.23054 L418.486777,1000.23054 L418.486777,1006.53356 C418.486777,1006.67661 418.437605,1006.79731 418.33926,1006.89565 C418.240914,1006.994 418.120219,1007.04317 417.977171,1007.04317 L415.509606,1007.04317 C415.366558,1007.04317 415.245863,1006.994 415.147518,1006.89565 C415.049172,1006.79731 415,1006.67661 415,1006.53356 Z M418.486777,996.958336 L421.598055,996.958336 C422.349057,996.958336 422.997234,996.690125 423.542604,996.153695 C424.087975,995.617265 424.360656,994.955678 424.360656,994.168914 C424.360656,993.435793 424.092445,992.818908 423.556015,992.31824 C423.019585,991.817572 422.366938,991.567241 421.598055,991.567241 L418.486777,991.567241 L418.486777,996.958336 Z M430.635229,1002.53718 C429.794823,1001.07094 429.374625,999.452731 429.374625,997.682512 C429.374625,995.912293 429.799293,994.285147 430.64864,992.801024 C431.497988,991.316901 432.664705,990.145713 434.148828,989.287425 C435.632951,988.429138 437.251157,988 439.003495,988 C440.755833,988 442.374039,988.429138 443.858162,989.287425 C445.342285,990.145713 446.513473,991.316901 447.37176,992.801024 C448.230048,994.285147 448.659186,995.912293 448.659186,997.682512 C448.659186,999.452731 448.230048,1001.07094 447.37176,1002.53718 C446.513473,1004.00342 445.342285,1005.16567 443.858162,1006.02396 C442.374039,1006.88224 440.755833,1007.31138 439.003495,1007.31138 C437.251157,1007.31138 435.632951,1006.88224 434.148828,1006.02396 C432.664705,1005.16567 431.493517,1004.00342 430.635229,1002.53718 Z M432.861403,997.682512 C432.861403,999.363326 433.464877,1000.8072 434.671845,1002.01416 C435.878812,1003.22113 437.322681,1003.8246 439.003495,1003.8246 C440.112117,1003.8246 441.140259,1003.54745 442.087952,1002.99314 C443.035645,1002.43883 443.786635,1001.69231 444.340946,1000.75356 C444.895257,999.814806 445.172409,998.791134 445.172409,997.682512 C445.172409,996.57389 444.895257,995.541278 444.340946,994.584645 C443.786635,993.628011 443.035645,992.872551 442.087952,992.31824 C441.140259,991.763929 440.112117,991.486777 439.003495,991.486777 C437.894873,991.486777 436.866731,991.763929 435.919038,992.31824 C434.971345,992.872551 434.224825,993.628011 433.679454,994.584645 C433.134084,995.541278 432.861403,996.57389 432.861403,997.682512 Z M451.044662,1005.21932 C450.901614,1005.07627 450.81668,1004.96451 450.789859,1004.88405 C450.763037,1004.80358 450.803269,1004.64713 450.910555,1004.41467 L451.876124,1002.75175 C451.98341,1002.57294 452.135396,1002.47013 452.332087,1002.4433 C452.528778,1002.41648 452.680764,1002.45671 452.78805,1002.564 L452.922157,1002.64446 C453.011562,1002.71599 453.114376,1002.78751 453.230603,1002.85904 C453.346829,1002.93056 453.489875,1003.01996 453.659745,1003.12725 C453.829614,1003.23454 454.012892,1003.33288 454.209583,1003.42228 C454.406274,1003.51169 454.611902,1003.61003 454.826474,1003.71732 C455.041046,1003.82461 455.260085,1003.91401 455.483597,1003.98553 C455.70711,1004.05706 455.939559,1004.11517 456.180953,1004.15987 C456.422346,1004.20457 456.641385,1004.22693 456.838076,1004.22693 C457.535435,1004.22693 458.116559,1004.02577 458.581465,1003.62344 C459.046371,1003.22112 459.27882,1002.73387 459.27882,1002.16168 C459.27882,1001.50008 459.001669,1000.91449 458.447358,1000.40488 C457.893047,999.895272 457.034772,999.408022 455.872507,998.943116 C455.318196,998.728544 454.817536,998.500565 454.370511,998.259172 C453.923486,998.017778 453.471997,997.722746 453.016032,997.374067 C452.560066,997.025387 452.175631,996.654362 451.862713,996.26098 C451.549796,995.867598 451.299466,995.402699 451.111715,994.866269 C450.923965,994.329839 450.830091,993.757656 450.830091,993.149702 C450.830091,992.523867 450.950786,991.920392 451.192179,991.33926 C451.433573,990.758127 451.786717,990.208295 452.251623,989.689746 C452.716529,989.171197 453.346825,988.75994 454.142529,988.455963 C454.938234,988.151986 455.845681,988 456.864898,988 C457.508614,988 458.143379,988.071523 458.769214,988.214571 C459.395049,988.357619 459.940412,988.540896 460.405318,988.764409 C460.870224,988.987921 461.241249,989.180139 461.518404,989.341068 C461.79556,989.501997 462.032479,989.653983 462.22917,989.797031 C462.372218,989.868555 462.461622,989.998191 462.497384,990.185941 C462.533146,990.373692 462.497385,990.539088 462.390099,990.682136 L461.370887,992.210954 C461.263601,992.389764 461.120555,992.510459 460.941745,992.573043 C460.762935,992.635626 460.593068,992.622215 460.432139,992.53281 C458.858611,991.549356 457.6159,991.057635 456.703969,991.057635 C455.988729,991.057635 455.416546,991.254324 454.987402,991.647705 C454.558258,992.041087 454.343689,992.470225 454.343689,992.935131 C454.343689,993.543085 454.59402,994.083977 455.094688,994.557823 C455.595356,995.03167 456.399988,995.492099 457.50861,995.939124 C458.116564,996.189458 458.648516,996.421907 459.104481,996.636479 C459.560447,996.851051 460.056637,997.146083 460.593067,997.521584 C461.129497,997.897085 461.567575,998.281521 461.907314,998.674903 C462.247053,999.068285 462.533145,999.555535 462.765598,1000.13667 C462.998051,1000.7178 463.114275,1001.33915 463.114275,1002.00075 C463.114275,1003.43123 462.542092,1004.67394 461.397708,1005.72892 C460.253324,1006.7839 458.769224,1007.31138 456.945362,1007.31138 C456.158598,1007.31138 455.412077,1007.23092 454.705778,1007.06999 C453.999478,1006.90906 453.400474,1006.70343 452.908746,1006.4531 C452.417019,1006.20276 452.028113,1005.97926 451.742017,1005.78256 C451.455921,1005.58587 451.223472,1005.39813 451.044662,1005.21932 Z M468.906064,1006.53356 L468.906064,991.486777 L464.802396,991.486777 C464.659348,991.486777 464.538653,991.433135 464.440307,991.325849 C464.341962,991.218563 464.29279,991.102338 464.29279,990.977171 L464.29279,988.77782 C464.29279,988.634772 464.341962,988.514077 464.440307,988.415731 C464.538653,988.317386 464.659348,988.268214 464.802396,988.268214 L476.523332,988.268214 C476.66638,988.268214 476.787075,988.321856 476.88542,988.429142 C476.983766,988.536428 477.032938,988.652653 477.032938,988.77782 L477.032938,990.977171 C477.032938,991.120219 476.983766,991.240914 476.88542,991.33926 C476.787075,991.437605 476.66638,991.486777 476.523332,991.486777 L472.419663,991.486777 L472.419663,1006.53356 C472.419663,1006.67661 472.366021,1006.79731 472.258735,1006.89565 C472.151449,1006.994 472.035224,1007.04317 471.910057,1007.04317 L469.41567,1007.04317 C469.272622,1007.04317 469.151927,1006.994 469.053582,1006.89565 C468.955236,1006.79731 468.906064,1006.67661 468.906064,1006.53356 Z M485.344309,1002.53718 C484.503902,1001.07094 484.083705,999.452731 484.083705,997.682512 C484.083705,995.912293 484.508372,994.285147 485.35772,992.801024 C486.207067,991.316901 487.373785,990.145713 488.857908,989.287425 C490.342031,988.429138 491.960237,988 493.712575,988 C495.464912,988 497.083119,988.429138 498.567241,989.287425 C500.051364,990.145713 501.222552,991.316901 502.08084,992.801024 C502.939128,994.285147 503.368266,995.912293 503.368266,997.682512 C503.368266,999.452731 502.939128,1001.07094 502.08084,1002.53718 C501.222552,1004.00342 500.051364,1005.16567 498.567241,1006.02396 C497.083119,1006.88224 495.464912,1007.31138 493.712575,1007.31138 C491.960237,1007.31138 490.342031,1006.88224 488.857908,1006.02396 C487.373785,1005.16567 486.202597,1004.00342 485.344309,1002.53718 Z M487.570482,997.682512 C487.570482,999.363326 488.173957,1000.8072 489.380924,1002.01416 C490.587892,1003.22113 492.031761,1003.8246 493.712575,1003.8246 C494.821196,1003.8246 495.849338,1003.54745 496.797031,1002.99314 C497.744724,1002.43883 498.495715,1001.69231 499.050026,1000.75356 C499.604337,999.814806 499.881488,998.791134 499.881488,997.682512 C499.881488,996.57389 499.604337,995.541278 499.050026,994.584645 C498.495715,993.628011 497.744724,992.872551 496.797031,992.31824 C495.849338,991.763929 494.821196,991.486777 493.712575,991.486777 C492.603953,991.486777 491.575811,991.763929 490.628118,992.31824 C489.680425,992.872551 488.933904,993.628011 488.388534,994.584645 C487.843163,995.541278 487.570482,996.57389 487.570482,997.682512 Z M506.71931,1006.53356 L506.71931,988.77782 C506.71931,988.634772 506.768482,988.514077 506.866828,988.415731 C506.965173,988.317386 507.085868,988.268214 507.228916,988.268214 L518.145211,988.268214 C518.288259,988.268214 518.408954,988.321856 518.5073,988.429142 C518.605645,988.536428 518.654817,988.652653 518.654817,988.77782 L518.654817,990.977171 C518.654817,991.120219 518.605645,991.240914 518.5073,991.33926 C518.408954,991.437605 518.288259,991.486777 518.145211,991.486777 L510.206088,991.486777 L510.206088,996.529194 L516.830964,996.529194 C516.974012,996.529194 517.094707,996.582836 517.193053,996.690122 C517.291398,996.797408 517.34057,996.913633 517.34057,997.0388 L517.34057,999.238151 C517.34057,999.381199 517.291398,999.501894 517.193053,999.60024 C517.094707,999.698585 516.974012,999.747757 516.830964,999.747757 L510.206088,999.747757 L510.206088,1006.53356 C510.206088,1006.67661 510.156916,1006.79731 510.05857,1006.89565 C509.960225,1006.994 509.83953,1007.04317 509.696482,1007.04317 L507.228916,1007.04317 C507.085868,1007.04317 506.965173,1006.994 506.866828,1006.89565 C506.768482,1006.79731 506.71931,1006.67661 506.71931,1006.53356 Z M521.684006,1006.53356 L521.684006,988.77782 C521.684006,988.634772 521.733178,988.514077 521.831523,988.415731 C521.929869,988.317386 522.050564,988.268214 522.193612,988.268214 L533.109907,988.268214 C533.252955,988.268214 533.37365,988.321856 533.471995,988.429142 C533.570341,988.536428 533.619513,988.652653 533.619513,988.77782 L533.619513,990.977171 C533.619513,991.120219 533.570341,991.240914 533.471995,991.33926 C533.37365,991.437605 533.252955,991.486777 533.109907,991.486777 L525.170783,991.486777 L525.170783,996.529194 L531.79566,996.529194 C531.938708,996.529194 532.059403,996.582836 532.157748,996.690122 C532.256094,996.797408 532.305266,996.913633 532.305266,997.0388 L532.305266,999.238151 C532.305266,999.381199 532.256094,999.501894 532.157748,999.60024 C532.059403,999.698585 531.938708,999.747757 531.79566,999.747757 L525.170783,999.747757 L525.170783,1006.53356 C525.170783,1006.67661 525.121611,1006.79731 525.023265,1006.89565 C524.92492,1006.994 524.804225,1007.04317 524.661177,1007.04317 L522.193612,1007.04317 C522.050564,1007.04317 521.929869,1006.994 521.831523,1006.89565 C521.733178,1006.79731 521.684006,1006.67661 521.684006,1006.53356 Z M536.648701,1006.53356 L536.648701,988.77782 C536.648701,988.634772 536.697873,988.514077 536.796219,988.415731 C536.894564,988.317386 537.015259,988.268214 537.158307,988.268214 L539.652694,988.268214 C539.795742,988.268214 539.916437,988.321856 540.014782,988.429142 C540.113128,988.536428 540.1623,988.652653 540.1623,988.77782 L540.1623,1006.53356 C540.1623,1006.67661 540.108658,1006.79731 540.001372,1006.89565 C539.894086,1006.994 539.777861,1007.04317 539.652694,1007.04317 L537.158307,1007.04317 C537.015259,1007.04317 536.894564,1006.994 536.796219,1006.89565 C536.697873,1006.79731 536.648701,1006.67661 536.648701,1006.53356 Z M553.195857,988 C554.519051,988 555.694709,988.205628 556.722866,988.616891 C557.751024,989.028154 558.738934,989.65398 559.686627,990.494387 C559.793913,990.601673 559.852025,990.726838 559.860966,990.869886 C559.869906,991.012934 559.820734,991.138099 559.713448,991.245385 L558.077345,992.935131 C557.98794,993.042417 557.880656,993.096059 557.755489,993.096059 C557.630322,993.096059 557.514097,993.042417 557.406811,992.935131 C556.834619,992.434463 556.190913,992.045557 555.475673,991.768402 C554.760433,991.491246 554.027323,991.35267 553.276321,991.35267 C551.595507,991.35267 550.178459,991.965085 549.025135,993.189934 C547.87181,994.414782 547.295157,995.885472 547.295157,997.602048 C547.295157,998.71067 547.554427,999.738812 548.072976,1000.68651 C548.591525,1001.6342 549.311225,1002.38966 550.232096,1002.95291 C551.152968,1003.51616 552.176639,1003.79778 553.303142,1003.79778 C554.769384,1003.79778 556.13726,1003.28818 557.406811,1002.26897 C557.514097,1002.17956 557.630322,1002.13933 557.755489,1002.14827 C557.880656,1002.15721 557.98794,1002.19744 558.077345,1002.26897 L559.74027,1003.98553 C559.847556,1004.09282 559.896728,1004.21798 559.887787,1004.36103 C559.878847,1004.50408 559.820734,1004.6203 559.713448,1004.70971 C557.925348,1006.44417 555.75284,1007.31138 553.195857,1007.31138 C551.443519,1007.31138 549.820843,1006.88224 548.327779,1006.02396 C546.834716,1005.16567 545.659058,1004.00342 544.80077,1002.53718 C543.942482,1001.07094 543.513345,999.452731 543.513345,997.682512 C543.513345,995.912293 543.942482,994.285147 544.80077,992.801024 C545.659058,991.316901 546.830246,990.145713 548.314369,989.287425 C549.798492,988.429138 551.425638,988 553.195857,988 Z M563.064493,1006.53356 L563.064493,988.77782 C563.064493,988.634772 563.113665,988.514077 563.212011,988.415731 C563.310356,988.317386 563.431051,988.268214 563.574099,988.268214 L574.490394,988.268214 C574.633442,988.268214 574.754137,988.321856 574.852482,988.429142 C574.950828,988.536428 575,988.652653 575,988.77782 L575,990.977171 C575,991.120219 574.950828,991.240914 574.852482,991.33926 C574.754137,991.437605 574.633442,991.486777 574.490394,991.486777 L566.55127,991.486777 L566.55127,995.885481 L573.176147,995.885481 C573.319195,995.885481 573.43989,995.939123 573.538236,996.046409 C573.636581,996.153695 573.685753,996.26992 573.685753,996.395087 L573.685753,998.62126 C573.685753,998.764308 573.636581,998.885003 573.538236,998.983348 C573.43989,999.081694 573.319195,999.130866 573.176147,999.130866 L566.55127,999.130866 L566.55127,1003.8246 L574.490394,1003.8246 C574.633442,1003.8246 574.754137,1003.87825 574.852482,1003.98553 C574.950828,1004.09282 575,1004.20904 575,1004.33421 L575,1006.53356 C575,1006.67661 574.950828,1006.79731 574.852482,1006.89565 C574.754137,1006.994 574.633442,1007.04317 574.490394,1007.04317 L563.574099,1007.04317 C563.431051,1007.04317 563.310356,1006.994 563.212011,1006.89565 C563.113665,1006.79731 563.064493,1006.67661 563.064493,1006.53356 Z" id="POST-OFFICE-Copy"></path>
        </g>
    </g>
</svg>